<svg width="32" height="32" viewBox="0 0 32 32" fill="none" xmlns="http://www.w3.org/2000/svg">
<path d="M3.19995 4.80001C3.19995 4.37567 3.36852 3.9687 3.66858 3.66864C3.96864 3.36858 4.37561 3.20001 4.79995 3.20001H8.24476C8.62349 3.20019 8.98988 3.3347 9.27875 3.57963C9.56763 3.82455 9.76025 4.16401 9.82236 4.53761L11.0064 11.6336C11.0629 11.9716 11.0095 12.3188 10.854 12.6241C10.6984 12.9294 10.449 13.1767 10.1424 13.3296L7.66556 14.5664C8.55373 16.7675 9.8765 18.7669 11.5548 20.4452C13.2331 22.1235 15.2325 23.4463 17.4336 24.3344L18.672 21.8576C18.8248 21.5513 19.0719 21.3021 19.3769 21.1465C19.6818 20.991 20.0287 20.9374 20.3664 20.9936L27.4624 22.1776C27.836 22.2398 28.1755 22.4324 28.4204 22.7213C28.6653 23.0101 28.7998 23.3765 28.8 23.7552V27.2001C28.8 27.6244 28.6314 28.0314 28.3314 28.3314C28.0313 28.6315 27.6243 28.8001 27.2 28.8001H24C12.512 28.8001 3.19995 19.488 3.19995 8.00002V4.80001Z" fill="white"/>
</svg>
